<svg xmlns="http://www.w3.org/2000/svg" viewBox="0 0 1280 720" fill="none" role="img" aria-label="Local GGUF hub preview">
  <rect width="1280" height="720" fill="#fafafa"/>
  <rect x="80" y="56" width="1120" height="608" rx="16" fill="#fff" stroke="#e8e8ef"/>
  <rect x="112" y="96" width="240" height="14" rx="4" fill="#6C5CE7"/>
  <rect x="112" y="130" width="400" height="10" rx="3" fill="#94a3b8" opacity="0.5"/>
  <rect x="112" y="180" width="1056" height="56" rx="10" fill="#f8f7fc" stroke="#ececf2"/>
  <rect x="132" y="198" width="180" height="12" rx="3" fill="#1e293b" opacity="0.2"/>
  <rect x="400" y="198" width="80" height="12" rx="3" fill="#94a3b8" opacity="0.4"/>
  <rect x="900" y="192" width="100" height="24" rx="8" fill="#6C5CE7"/>
  <text x="950" y="208" fill="#fff" font-family="Plus Jakarta Sans, system-ui, sans-serif" font-size="12" font-weight="600" text-anchor="middle">Download</text>
  <rect x="112" y="260" width="1056" height="56" rx="10" fill="#fff" stroke="#ececf2"/>
  <rect x="132" y="278" width="200" height="12" rx="3" fill="#1e293b" opacity="0.15"/>
  <rect x="400" y="278" width="60" height="12" rx="3" fill="#94a3b8" opacity="0.35"/>
  <rect x="112" y="340" width="1056" height="56" rx="10" fill="#fff" stroke="#ececf2"/>
  <rect x="132" y="358" width="160" height="12" rx="3" fill="#1e293b" opacity="0.15"/>
  <rect x="112" y="420" width="1056" height="200" rx="12" fill="#f0fdf4" stroke="#86efac" stroke-width="1"/>
  <rect x="140" y="448" width="16" height="16" rx="8" fill="#22c55e"/>
  <rect x="168" y="450" width="280" height="12" rx="3" fill="#166534" opacity="0.5"/>
  <rect x="140" y="480" width="600" height="8" rx="3" fill="#6C5CE7" opacity="0.35"/>
  <rect x="140" y="500" width="400" height="8" rx="3" fill="#94a3b8" opacity="0.3"/>
  <text x="640" y="698" fill="#64748b" font-family="Plus Jakarta Sans, system-ui, sans-serif" font-size="18" font-weight="500" text-anchor="middle">Download and run GGUF models locally</text>
</svg>
