<svg xmlns="http://www.w3.org/2000/svg" viewBox="0 0 1280 800" fill="none" role="img" aria-label="Openbentt workspace preview">
  <rect width="1280" height="800" fill="#f4f7f9"/>
  <rect x="80" y="60" width="1120" height="680" rx="16" fill="#fff" stroke="#d4dde4" stroke-width="2"/>
  <circle cx="120" cy="95" r="6" fill="#f87171"/><circle cx="142" cy="95" r="6" fill="#fbbf24"/><circle cx="164" cy="95" r="6" fill="#34d399"/>
  <rect x="80" y="120" width="220" height="620" fill="#eef3f5"/>
  <rect x="100" y="150" width="180" height="28" rx="8" fill="#0d9488" opacity="0.9"/>
  <rect x="100" y="190" width="140" height="12" rx="4" fill="#94a3b8"/>
  <rect x="100" y="212" width="160" height="12" rx="4" fill="#cbd5e1"/>
  <rect x="100" y="234" width="120" height="12" rx="4" fill="#cbd5e1"/>
  <rect x="320" y="150" width="520" height="36" rx="10" fill="#e8f4f3" stroke="#99d5cf"/>
  <rect x="320" y="210" width="380" height="14" rx="4" fill="#0d9488" opacity="0.35"/>
  <rect x="320" y="250" width="840" height="200" rx="12" fill="#f8fafc" stroke="#e2e8f0"/>
  <rect x="340" y="280" width="720" height="10" rx="3" fill="#cbd5e1"/>
  <rect x="340" y="300" width="640" height="10" rx="3" fill="#cbd5e1"/>
  <rect x="340" y="320" width="680" height="10" rx="3" fill="#cbd5e1"/>
  <rect x="320" y="480" width="840" height="56" rx="14" fill="#fff" stroke="#d4dde4"/>
</svg>
